<?xml version="1.0" encoding="UTF-8" standalone="no"?>
<!DOCTYPE svg PUBLIC "-//W3C//DTD SVG 1.1//EN"
 "http://www.w3.org/Graphics/SVG/1.1/DTD/svg11.dtd">
<!-- Generated by graphviz version 2.36.0 (20140111.2315)
 -->
<!-- Title: G Pages: 1 -->
<svg width="144pt" height="420pt"
 viewBox="0.00 0.00 144.00 420.00" xmlns="http://www.w3.org/2000/svg" xmlns:xlink="http://www.w3.org/1999/xlink">
<g id="graph0" class="graph" transform="scale(1 1) rotate(0) translate(4 416)">
<title>G</title>
<polygon fill="white" stroke="none" points="-4,4 -4,-416 140,-416 140,4 -4,4"/>
<g id="clust1" class="cluster"><title>cluster_Global</title>
<path fill="none" stroke="gray" d="M20,-8C20,-8 116,-8 116,-8 122,-8 128,-14 128,-20 128,-20 128,-392 128,-392 128,-398 122,-404 116,-404 116,-404 20,-404 20,-404 14,-404 8,-398 8,-392 8,-392 8,-20 8,-20 8,-14 14,-8 20,-8"/>
<text text-anchor="middle" x="68" y="-391.2" font-family="Times,serif" font-size="11.00" fill="gray">Global</text>
</g>
<!-- \\Slot -->
<g id="node1" class="node"><title>\\Slot</title>
<polygon fill="none" stroke="black" points="95,-376 41,-376 41,-340 95,-340 95,-376"/>
<text text-anchor="middle" x="68" y="-355.2" font-family="Courier,monospace" font-size="11.00">Slot</text>
</g>
<!-- \\Reel -->
<g id="node2" class="node"><title>\\Reel</title>
<polygon fill="none" stroke="black" points="95,-322 41,-322 41,-286 95,-286 95,-322"/>
<text text-anchor="middle" x="68" y="-301.2" font-family="Courier,monospace" font-size="11.00">Reel</text>
</g>
<!-- \\Ctrl -->
<g id="node3" class="node"><title>\\Ctrl</title>
<polygon fill="none" stroke="black" points="95,-268 41,-268 41,-232 95,-232 95,-268"/>
<text text-anchor="middle" x="68" y="-247.2" font-family="Courier,monospace" font-size="11.00">Ctrl</text>
</g>
<!-- \\WebEngine -->
<g id="node4" class="node"><title>\\WebEngine</title>
<polygon fill="none" stroke="black" points="106.5,-214 29.5,-214 29.5,-178 106.5,-178 106.5,-214"/>
<text text-anchor="middle" x="68" y="-193.2" font-family="Courier,monospace" font-size="11.00">WebEngine</text>
</g>
<!-- \\Params -->
<g id="node5" class="node"><title>\\Params</title>
<polygon fill="none" stroke="black" points="96.5,-160 39.5,-160 39.5,-124 96.5,-124 96.5,-160"/>
<text text-anchor="middle" x="68" y="-139.2" font-family="Courier,monospace" font-size="11.00">Params</text>
</g>
<!-- \\BonusWorker -->
<g id="node6" class="node"><title>\\BonusWorker</title>
<polygon fill="none" stroke="black" points="113.5,-106 22.5,-106 22.5,-70 113.5,-70 113.5,-106"/>
<text text-anchor="middle" x="68" y="-85.2" font-family="Courier,monospace" font-size="11.00">BonusWorker</text>
</g>
<!-- \\SymbolsWorker -->
<g id="node7" class="node"><title>\\SymbolsWorker</title>
<polygon fill="none" stroke="black" points="120,-52 16,-52 16,-16 120,-16 120,-52"/>
<text text-anchor="middle" x="68" y="-31.2" font-family="Courier,monospace" font-size="11.00">SymbolsWorker</text>
</g>
</g>
</svg>
